<svg width="760" height="220" viewBox="0 0 760 220" fill="none" xmlns="http://www.w3.org/2000/svg"><path d="M40 170 C 200 168, 560 172, 720 168" stroke="#161614" stroke-width="1.2" stroke-linecap="round"/><path d="M712 162 L 722 168 L 712 175" stroke="#161614" stroke-width="1.2" stroke-linecap="round" stroke-linejoin="round"/><circle cx="110" cy="169" r="5" fill="#161614"/><circle cx="290" cy="169" r="5" fill="#161614"/><circle cx="470" cy="170" r="5" fill="#161614"/><circle cx="640" cy="169" r="7" fill="#2A45A8"/><path d="M110 150 C 108 120, 112 90, 110 70" stroke="#6B6A64" stroke-width="1" stroke-dasharray="3 4"/><path d="M290 150 C 288 120, 292 100, 290 84" stroke="#6B6A64" stroke-width="1" stroke-dasharray="3 4"/><path d="M470 150 C 468 130, 472 110, 470 96" stroke="#6B6A64" stroke-width="1" stroke-dasharray="3 4"/><path d="M640 150 C 638 110, 642 70, 640 40" stroke="#2A45A8" stroke-width="1.2" stroke-dasharray="3 4"/><rect x="72" y="36" width="76" height="30" rx="3" stroke="#161614" stroke-width="1.2"/><rect x="252" y="50" width="76" height="30" rx="3" stroke="#161614" stroke-width="1.2"/><rect x="432" y="62" width="76" height="30" rx="3" stroke="#161614" stroke-width="1.2"/><path d="M598 12 C 640 8, 684 10, 690 14 C 692 22, 691 30, 688 36 C 650 38, 612 38, 596 35 C 594 26, 595 18, 598 12 Z" stroke="#2A45A8" stroke-width="1.4"/><text x="110" y="200" text-anchor="middle" font-family="Georgia, serif" font-style="italic" font-size="14" fill="#6B6A64">v1</text><text x="290" y="200" text-anchor="middle" font-family="Georgia, serif" font-style="italic" font-size="14" fill="#6B6A64">v2</text><text x="470" y="200" text-anchor="middle" font-family="Georgia, serif" font-style="italic" font-size="14" fill="#6B6A64">v3</text><text x="640" y="200" text-anchor="middle" font-family="Georgia, serif" font-style="italic" font-size="14" fill="#2A45A8">v4</text></svg>
